<svg width="1788" height="857" xmlns="http://www.w3.org/2000/svg" xmlns:xlink="http://www.w3.org/1999/xlink" xml:space="preserve" overflow="hidden"><defs><clipPath id="clip0"><rect x="1452" y="660" width="1788" height="857"/></clipPath><clipPath id="clip1"><rect x="1452" y="660" width="1788" height="857"/></clipPath><clipPath id="clip2"><rect x="1456" y="660" width="1784" height="855"/></clipPath><clipPath id="clip3"><rect x="1456" y="660" width="1784" height="855"/></clipPath><clipPath id="clip4"><rect x="1456" y="660" width="1784" height="855"/></clipPath></defs><g clip-path="url(#clip0)" transform="translate(-1452 -660)"><g clip-path="url(#clip1)"><g clip-path="url(#clip2)"><g clip-path="url(#clip3)"><g clip-path="url(#clip4)"><path d="M869.359 413.481 997.372 413.481 997.372 434.987 869.359 434.987Z" fill="#CC007E" fill-rule="evenodd" fill-opacity="1" transform="matrix(1 0 0 1.48786 1779.04 269.163)"/><path d="M869.359 413.481 997.372 413.481 997.372 434.987 869.359 434.987Z" fill="#CC007E" fill-rule="evenodd" fill-opacity="1" transform="matrix(-1 0 0 1.48786 2914.22 269.163)"/><path d="M869.359 413.481 997.372 413.481 997.372 434.987 869.359 434.987Z" fill="#CC007E" fill-rule="evenodd" fill-opacity="1" transform="matrix(1 0 0 1.48786 1510.22 269.163)"/><path d="M869.359 413.481 997.372 413.481 997.372 434.987 869.359 434.987Z" fill="#CC007E" fill-rule="evenodd" fill-opacity="1" transform="matrix(1 0 0 1.48786 1318.19 269.163)"/><path d="M869.359 413.481 997.372 413.481 997.372 434.987 869.359 434.987Z" fill="#CC007E" fill-rule="evenodd" fill-opacity="1" transform="matrix(1 0 0 1.48786 1318.2 643.198)"/><path d="M869.359 413.481 997.372 413.481 997.372 434.987 869.359 434.987Z" fill="#CC007E" fill-rule="evenodd" fill-opacity="1" transform="matrix(-1 0 0 1.48786 2453.38 643.198)"/><path d="M869.359 413.481 997.372 413.481 997.372 434.987 869.359 434.987Z" fill="#CC007E" fill-rule="evenodd" fill-opacity="1" transform="matrix(1 0 0 1.48786 1049.37 643.198)"/><path d="M869.359 413.481 997.372 413.481 997.372 434.987 869.359 434.987Z" fill="#CC007E" fill-rule="evenodd" fill-opacity="1" transform="matrix(1 0 0 1.48786 857.348 643.198)"/><path d="M869.359 413.481 997.372 413.481 997.372 434.987 869.359 434.987Z" fill="#CC007E" fill-rule="evenodd" fill-opacity="1" transform="matrix(1 0 0 1.48786 2241.77 643.198)"/><path d="M869.359 413.481 997.372 413.481 997.372 434.987 869.359 434.987Z" fill="#CC007E" fill-rule="evenodd" fill-opacity="1" transform="matrix(-1 0 0 1.48786 3376.95 643.198)"/><path d="M869.359 413.481 997.372 413.481 997.372 434.987 869.359 434.987Z" fill="#CC007E" fill-rule="evenodd" fill-opacity="1" transform="matrix(1 0 0 1.48786 1972.94 643.198)"/><path d="M869.359 413.481 997.372 413.481 997.372 434.987 869.359 434.987Z" fill="#CC007E" fill-rule="evenodd" fill-opacity="1" transform="matrix(1 0 0 1.48786 1780.92 643.198)"/><path d="M869.359 413.481 997.372 413.481 997.372 434.987 869.359 434.987Z" fill="#CC007E" fill-rule="evenodd" fill-opacity="1" transform="matrix(1 0 0 -1.48786 1715.97 1568.98)"/><path d="M869.359 413.481 997.372 413.481 997.372 434.987 869.359 434.987Z" fill="#CC007E" fill-rule="evenodd" fill-opacity="1" transform="matrix(-1 0 0 -1.48786 2979.16 1568.98)"/><path d="M1293.48 615.201 1483.95 615.201 1483.95 647.198 1293.48 647.198Z" fill="#CC007E" fill-rule="evenodd" fill-opacity="1" transform="matrix(1.07537 0 0 -1 855.126 1568.98)"/><path d="M652.019 310.11 748.028 310.11 748.028 326.24 652.019 326.24Z" fill="#CC007E" fill-rule="evenodd" fill-opacity="1" transform="matrix(1 0 0 -1.98381 1649.42 1606.4)"/><path d="M869.359 413.481 997.372 413.481 997.372 434.987 869.359 434.987Z" fill="#CC007E" fill-rule="evenodd" fill-opacity="1" transform="matrix(1 0 0 -1.48786 1652.91 1606.4)"/><path d="M869.359 413.481 997.372 413.481 997.372 434.987 869.359 434.987Z" fill="#CC007E" fill-rule="evenodd" fill-opacity="1" transform="matrix(-1 0 0 -1.48786 3044.12 1606.4)"/><path d="M869.359 413.481 997.372 413.481 997.372 434.987 869.359 434.987Z" fill="#CC007E" fill-rule="evenodd" fill-opacity="1" transform="matrix(1 0 0 -1.48786 1582.51 1643.81)"/><path d="M869.359 413.481 997.372 413.481 997.372 434.987 869.359 434.987Z" fill="#CC007E" fill-rule="evenodd" fill-opacity="1" transform="matrix(-1 0 0 -1.48786 3114.52 1643.81)"/><path d="M869.359 413.481 997.372 413.481 997.372 434.987 869.359 434.987Z" fill="#CC007E" fill-rule="evenodd" fill-opacity="1" transform="matrix(1 0 0 -1.48786 1511.16 1681.23)"/><path d="M869.359 413.481 997.372 413.481 997.372 434.987 869.359 434.987Z" fill="#CC007E" fill-rule="evenodd" fill-opacity="1" transform="matrix(1 0 0 -1.48786 1319.13 1681.23)"/><path d="M1293.48 615.201 1483.95 615.201 1483.95 647.198 1293.48 647.198Z" fill="#CC007E" fill-rule="evenodd" fill-opacity="1" transform="matrix(1.07537 0 0 -1 855.126 1718.64)"/><path d="M652.019 310.11 748.028 310.11 748.028 326.24 652.019 326.24Z" fill="#CC007E" fill-rule="evenodd" fill-opacity="1" transform="matrix(1 0 0 -1.98381 1648.49 1755.93)"/><path d="M869.359 413.481 997.372 413.481 997.372 434.987 869.359 434.987Z" fill="#CC007E" fill-rule="evenodd" fill-opacity="1" transform="matrix(1 0 0 1.48786 1715.04 231.747)"/><path d="M869.359 413.481 997.372 413.481 997.372 434.987 869.359 434.987Z" fill="#CC007E" fill-rule="evenodd" fill-opacity="1" transform="matrix(-1 0 0 1.48786 2978.23 231.747)"/><path d="M1293.48 615.201 1483.95 615.201 1483.95 647.198 1293.48 647.198Z" fill="#CC007E" fill-rule="evenodd" fill-opacity="1" transform="matrix(1.07537 0 0 1 854.186 231.747)"/><path d="M652.019 310.11 748.028 310.11 748.028 326.24 652.019 326.24Z" fill="#CC007E" fill-rule="evenodd" fill-opacity="1" transform="matrix(1 0 0 1.98381 1648.49 194.339)"/><path d="M869.359 413.481 997.372 413.481 997.372 434.987 869.359 434.987Z" fill="#CC007E" fill-rule="evenodd" fill-opacity="1" transform="matrix(1 0 0 1.48786 1651.97 194.339)"/><path d="M869.359 413.481 997.372 413.481 997.372 434.987 869.359 434.987Z" fill="#CC007E" fill-rule="evenodd" fill-opacity="1" transform="matrix(-1 0 0 1.48786 3043.17 194.339)"/><path d="M869.359 413.481 997.372 413.481 997.372 434.987 869.359 434.987Z" fill="#CC007E" fill-rule="evenodd" fill-opacity="1" transform="matrix(1 0 0 1.48786 1581.56 156.921)"/><path d="M869.359 413.481 997.372 413.481 997.372 434.987 869.359 434.987Z" fill="#CC007E" fill-rule="evenodd" fill-opacity="1" transform="matrix(-1 0 0 1.48786 3113.58 156.921)"/><path d="M869.359 413.481 997.372 413.481 997.372 434.987 869.359 434.987Z" fill="#CC007E" fill-rule="evenodd" fill-opacity="1" transform="matrix(1 0 0 1.48786 1510.21 119.502)"/><path d="M869.359 413.481 997.372 413.481 997.372 434.987 869.359 434.987Z" fill="#CC007E" fill-rule="evenodd" fill-opacity="1" transform="matrix(1 0 0 1.48786 1318.2 119.502)"/><path d="M1293.48 615.201 1483.95 615.201 1483.95 647.198 1293.48 647.198Z" fill="#CC007E" fill-rule="evenodd" fill-opacity="1" transform="matrix(1.07537 0 0 1 854.186 82.084)"/><path d="M652.019 310.11 748.028 310.11 748.028 326.24 652.019 326.24Z" fill="#CC007E" fill-rule="evenodd" fill-opacity="1" transform="matrix(1 0 0 1.98381 1647.55 44.7956)"/><path d="M869.359 413.481 997.372 413.481 997.372 434.987 869.359 434.987Z" fill="#CC007E" fill-rule="evenodd" fill-opacity="1" transform="matrix(1 0 0 -1.48786 2178.7 1943.01)"/><path d="M869.359 413.481 997.372 413.481 997.372 434.987 869.359 434.987Z" fill="#CC007E" fill-rule="evenodd" fill-opacity="1" transform="matrix(-1 0 0 -1.48786 3441.89 1943.01)"/><path d="M1293.48 615.201 1483.95 615.201 1483.95 647.198 1293.48 647.198Z" fill="#CC007E" fill-rule="evenodd" fill-opacity="1" transform="matrix(1.07537 0 0 -1 1317.85 1943.01)"/><path d="M652.019 310.11 748.028 310.11 748.028 326.24 652.019 326.24Z" fill="#CC007E" fill-rule="evenodd" fill-opacity="1" transform="matrix(1 0 0 -1.98381 2112.16 1980.43)"/><path d="M869.359 413.481 997.372 413.481 997.372 434.987 869.359 434.987Z" fill="#CC007E" fill-rule="evenodd" fill-opacity="1" transform="matrix(1 0 0 -1.48786 2115.64 1980.43)"/><path d="M869.359 413.481 997.372 413.481 997.372 434.987 869.359 434.987Z" fill="#CC007E" fill-rule="evenodd" fill-opacity="1" transform="matrix(-1 0 0 -1.48786 3506.84 1980.43)"/><path d="M869.359 413.481 997.372 413.481 997.372 434.987 869.359 434.987Z" fill="#CC007E" fill-rule="evenodd" fill-opacity="1" transform="matrix(1 0 0 -1.48786 2045.23 2017.84)"/><path d="M869.359 413.481 997.372 413.481 997.372 434.987 869.359 434.987Z" fill="#CC007E" fill-rule="evenodd" fill-opacity="1" transform="matrix(-1 0 0 -1.48786 3577.25 2017.84)"/><path d="M869.359 413.481 997.372 413.481 997.372 434.987 869.359 434.987Z" fill="#CC007E" fill-rule="evenodd" fill-opacity="1" transform="matrix(1 0 0 -1.48786 1973.88 2055.26)"/><path d="M869.359 413.481 997.372 413.481 997.372 434.987 869.359 434.987Z" fill="#CC007E" fill-rule="evenodd" fill-opacity="1" transform="matrix(1 0 0 -1.48786 1781.86 2055.26)"/><path d="M1293.48 615.201 1483.95 615.201 1483.95 647.198 1293.48 647.198Z" fill="#CC007E" fill-rule="evenodd" fill-opacity="1" transform="matrix(1.07537 0 0 -1 1317.85 2092.68)"/><path d="M652.019 310.11 748.028 310.11 748.028 326.24 652.019 326.24Z" fill="#CC007E" fill-rule="evenodd" fill-opacity="1" transform="matrix(1 0 0 -1.98381 2111.21 2129.96)"/><path d="M869.359 413.481 997.372 413.481 997.372 434.987 869.359 434.987Z" fill="#CC007E" fill-rule="evenodd" fill-opacity="1" transform="matrix(1 0 0 1.48786 2177.76 605.782)"/><path d="M869.359 413.481 997.372 413.481 997.372 434.987 869.359 434.987Z" fill="#CC007E" fill-rule="evenodd" fill-opacity="1" transform="matrix(-1 0 0 1.48786 3440.95 605.782)"/><path d="M1293.48 615.201 1483.95 615.201 1483.95 647.198 1293.48 647.198Z" fill="#CC007E" fill-rule="evenodd" fill-opacity="1" transform="matrix(1.07537 0 0 1 1316.91 605.782)"/><path d="M652.019 310.11 748.028 310.11 748.028 326.24 652.019 326.24Z" fill="#CC007E" fill-rule="evenodd" fill-opacity="1" transform="matrix(1 0 0 1.98381 2111.21 568.367)"/><path d="M869.359 413.481 997.372 413.481 997.372 434.987 869.359 434.987Z" fill="#CC007E" fill-rule="evenodd" fill-opacity="1" transform="matrix(1 0 0 1.48786 2114.69 568.367)"/><path d="M869.359 413.481 997.372 413.481 997.372 434.987 869.359 434.987Z" fill="#CC007E" fill-rule="evenodd" fill-opacity="1" transform="matrix(-1 0 0 1.48786 3505.9 568.367)"/><path d="M869.359 413.481 997.372 413.481 997.372 434.987 869.359 434.987Z" fill="#CC007E" fill-rule="evenodd" fill-opacity="1" transform="matrix(1 0 0 1.48786 2044.29 530.95)"/><path d="M869.359 413.481 997.372 413.481 997.372 434.987 869.359 434.987Z" fill="#CC007E" fill-rule="evenodd" fill-opacity="1" transform="matrix(-1 0 0 1.48786 3576.3 530.95)"/><path d="M869.359 413.481 997.372 413.481 997.372 434.987 869.359 434.987Z" fill="#CC007E" fill-rule="evenodd" fill-opacity="1" transform="matrix(1 0 0 1.48786 1972.94 493.535)"/><path d="M869.359 413.481 997.372 413.481 997.372 434.987 869.359 434.987Z" fill="#CC007E" fill-rule="evenodd" fill-opacity="1" transform="matrix(1 0 0 1.48786 1780.92 493.535)"/><path d="M1293.48 615.201 1483.95 615.201 1483.95 647.198 1293.48 647.198Z" fill="#CC007E" fill-rule="evenodd" fill-opacity="1" transform="matrix(1.07537 0 0 1 1316.91 456.117)"/><path d="M652.019 310.11 748.028 310.11 748.028 326.24 652.019 326.24Z" fill="#CC007E" fill-rule="evenodd" fill-opacity="1" transform="matrix(1 0 0 1.98381 2110.27 418.828)"/><path d="M869.359 413.481 997.372 413.481 997.372 434.987 869.359 434.987Z" fill="#CC007E" fill-rule="evenodd" fill-opacity="1" transform="matrix(1 0 0 -1.48786 1255.13 1943.01)"/><path d="M869.359 413.481 997.372 413.481 997.372 434.987 869.359 434.987Z" fill="#CC007E" fill-rule="evenodd" fill-opacity="1" transform="matrix(-1 0 0 -1.48786 2518.33 1943.01)"/><path d="M1293.48 615.201 1483.95 615.201 1483.95 647.198 1293.48 647.198Z" fill="#CC007E" fill-rule="evenodd" fill-opacity="1" transform="matrix(1.07537 0 0 -1 394.281 1943.01)"/><path d="M652.019 310.11 748.028 310.11 748.028 326.24 652.019 326.24Z" fill="#CC007E" fill-rule="evenodd" fill-opacity="1" transform="matrix(1 0 0 -1.98381 1188.58 1980.43)"/><path d="M869.359 413.481 997.372 413.481 997.372 434.987 869.359 434.987Z" fill="#CC007E" fill-rule="evenodd" fill-opacity="1" transform="matrix(1 0 0 -1.48786 1192.06 1980.43)"/><path d="M869.359 413.481 997.372 413.481 997.372 434.987 869.359 434.987Z" fill="#CC007E" fill-rule="evenodd" fill-opacity="1" transform="matrix(-1 0 0 -1.48786 2583.27 1980.43)"/><path d="M869.359 413.481 997.372 413.481 997.372 434.987 869.359 434.987Z" fill="#CC007E" fill-rule="evenodd" fill-opacity="1" transform="matrix(1 0 0 -1.48786 1121.66 2017.84)"/><path d="M869.359 413.481 997.372 413.481 997.372 434.987 869.359 434.987Z" fill="#CC007E" fill-rule="evenodd" fill-opacity="1" transform="matrix(-1 0 0 -1.48786 2653.68 2017.84)"/><path d="M869.359 413.481 997.372 413.481 997.372 434.987 869.359 434.987Z" fill="#CC007E" fill-rule="evenodd" fill-opacity="1" transform="matrix(1 0 0 -1.48786 1050.31 2055.26)"/><path d="M869.359 413.481 997.372 413.481 997.372 434.987 869.359 434.987Z" fill="#CC007E" fill-rule="evenodd" fill-opacity="1" transform="matrix(1 0 0 -1.48786 858.291 2055.26)"/><path d="M1293.48 615.201 1483.95 615.201 1483.95 647.198 1293.48 647.198Z" fill="#CC007E" fill-rule="evenodd" fill-opacity="1" transform="matrix(1.07537 0 0 -1 394.281 2092.68)"/><path d="M652.019 310.11 748.028 310.11 748.028 326.24 652.019 326.24Z" fill="#CC007E" fill-rule="evenodd" fill-opacity="1" transform="matrix(1 0 0 -1.98381 1187.64 2129.96)"/><path d="M869.359 413.481 997.372 413.481 997.372 434.987 869.359 434.987Z" fill="#CC007E" fill-rule="evenodd" fill-opacity="1" transform="matrix(1 0 0 1.48786 1254.19 605.782)"/><path d="M869.359 413.481 997.372 413.481 997.372 434.987 869.359 434.987Z" fill="#CC007E" fill-rule="evenodd" fill-opacity="1" transform="matrix(-1 0 0 1.48786 2517.38 605.782)"/><path d="M1293.48 615.201 1483.95 615.201 1483.95 647.198 1293.48 647.198Z" fill="#CC007E" fill-rule="evenodd" fill-opacity="1" transform="matrix(1.07537 0 0 1 393.341 605.782)"/><path d="M652.019 310.11 748.028 310.11 748.028 326.24 652.019 326.24Z" fill="#CC007E" fill-rule="evenodd" fill-opacity="1" transform="matrix(1 0 0 1.98381 1187.64 568.367)"/><path d="M869.359 413.481 997.372 413.481 997.372 434.987 869.359 434.987Z" fill="#CC007E" fill-rule="evenodd" fill-opacity="1" transform="matrix(1 0 0 1.48786 1191.12 568.367)"/><path d="M869.359 413.481 997.372 413.481 997.372 434.987 869.359 434.987Z" fill="#CC007E" fill-rule="evenodd" fill-opacity="1" transform="matrix(-1 0 0 1.48786 2582.33 568.367)"/><path d="M869.359 413.481 997.372 413.481 997.372 434.987 869.359 434.987Z" fill="#CC007E" fill-rule="evenodd" fill-opacity="1" transform="matrix(1 0 0 1.48786 1120.71 530.95)"/><path d="M869.359 413.481 997.372 413.481 997.372 434.987 869.359 434.987Z" fill="#CC007E" fill-rule="evenodd" fill-opacity="1" transform="matrix(-1 0 0 1.48786 2652.73 530.95)"/><path d="M869.359 413.481 997.372 413.481 997.372 434.987 869.359 434.987Z" fill="#CC007E" fill-rule="evenodd" fill-opacity="1" transform="matrix(1 0 0 1.48786 1049.37 493.535)"/><path d="M869.359 413.481 997.372 413.481 997.372 434.987 869.359 434.987Z" fill="#CC007E" fill-rule="evenodd" fill-opacity="1" transform="matrix(1 0 0 1.48786 857.35 493.535)"/><path d="M1293.48 615.201 1483.95 615.201 1483.95 647.198 1293.48 647.198Z" fill="#CC007E" fill-rule="evenodd" fill-opacity="1" transform="matrix(1.07537 0 0 1 393.341 456.117)"/><path d="M652.019 310.11 748.028 310.11 748.028 326.24 652.019 326.24Z" fill="#CC007E" fill-rule="evenodd" fill-opacity="1" transform="matrix(1 0 0 1.98381 1186.7 418.828)"/></g></g></g></g></g></svg>